HIERARCHY
ROOT Hips
{
  OFFSET 13.6774 106.653 -34.4427
  CHANNELS 6 Xposition Yposition Zposition Zrotation Xrotation Yrotation
  JOINT ToSpine
  {
    OFFSET -2.69724 7.43032 -0.144315
    CHANNELS 3 Zrotation Xrotation Yrotation
    JOINT Spine
    {
      OFFSET -0.0310711 10.7595 1.96963
      CHANNELS 3 Zrotation Xrotation Yrotation
      JOINT Spine1
      {
        OFFSET 19.9056 3.91189 0.764692
        CHANNELS 3 Zrotation Xrotation Yrotation
        JOINT Neck
        {
          OFFSET 25.9749 7.03908 -0.130764
          CHANNELS 3 Zrotation Xrotation Yrotation
          JOINT Head
          {
            OFFSET 9.52751 0.295786 -0.907742
            CHANNELS 3 Zrotation Xrotation Yrotation
            End Site
            {
              OFFSET 16.4037 0.713936 2.7358
            }
          }
        }
        JOINT LeftShoulder
        {
          OFFSET 17.7449 4.33886 11.7777
          CHANNELS 3 Zrotation Xrotation Yrotation
          JOINT LeftArm
          {
            OFFSET 0.911315 1.27913 9.80584
            CHANNELS 3 Zrotation Xrotation Yrotation
            JOINT LeftForeArm
            {
              OFFSET 28.6126 1.18197 -3.53199
              CHANNELS 3 Zrotation Xrotation Yrotation
              JOINT LeftHand
              {
                OFFSET 27.5088 0.0218783 0.327423
                CHANNELS 3 Zrotation Xrotation Yrotation
                End Site
                {
                  OFFSET 18.6038 -0.000155887 0.382096
                }
              }
            }
          }
        }
        JOINT RightShoulder
        {
          OFFSET 17.1009 2.89543 -12.2328
          CHANNELS 3 Zrotation Xrotation Yrotation
          JOINT RightArm
          {
            OFFSET 1.4228 0.178766 -10.211
            CHANNELS 3 Zrotation Xrotation Yrotation
            JOINT RightForeArm
            {
              OFFSET 28.733 1.87905 2.64907
              CHANNELS 3 Zrotation Xrotation Yrotation
              JOINT RightHand
              {
                OFFSET 27.4588 0.290562 -0.101845
                CHANNELS 3 Zrotation Xrotation Yrotation
                End Site
                {
                  OFFSET 17.8396 -0.255518 -0.000602873
                }
              }
            }
          }
        }
      }
    }
  }
  JOINT LeftUpLeg
  {
    OFFSET -5.61296 -2.22332 -10.2353
    CHANNELS 3 Zrotation Xrotation Yrotation
    JOINT LeftLeg
    {
      OFFSET 2.56703 -44.7417 -7.93097
      CHANNELS 3 Zrotation Xrotation Yrotation
      JOINT LeftFoot
      {
        OFFSET 3.16933 -46.5642 -3.96578
        CHANNELS 3 Zrotation Xrotation Yrotation
        JOINT LeftToeBase
        {
          OFFSET 0.346054 -6.02161 12.8035
          CHANNELS 3 Zrotation Xrotation Yrotation
          End Site
          {
            OFFSET 0.134235 -1.35082 5.13018
          }
        }
      }
    }
  }
  JOINT RightUpLeg
  {
    OFFSET -5.7928 -1.72406 10.6446
    CHANNELS 3 Zrotation Xrotation Yrotation
    JOINT RightLeg
    {
      OFFSET -2.57161 -44.7178 -7.85259
      CHANNELS 3 Zrotation Xrotation Yrotation
      JOINT RightFoot
      {
        OFFSET -3.10148 -46.5936 -4.03391
        CHANNELS 3 Zrotation Xrotation Yrotation
        JOINT RightToeBase
        {
          OFFSET -0.0828122 -6.13587 12.8035
          CHANNELS 3 Zrotation Xrotation Yrotation
          End Site
          {
            OFFSET -0.131328 -1.35082 5.13018
          }
        }
      }
    }
  }
}
MOTION
Frames: 7
Frame Time: 0.03333333333333333
0.0000 93.1000 0.0000 -50.1250 -63.7903 -139.6002 -70.9693 -0.0831 88.0066 74.0934 72.1315 17.5711 2.3072 23.1687 -1.0297 -139.2863 20.2054 -175.6109 -154.2769 57.2160 -178.2985 0.0765 -20.4228 -30.1934 -121.1241 20.1823 -95.7518 15.6588 6.5570 -69.0480 0.8393 -0.3673 -0.4602 -1.3805 8.7043 35.4472 -51.3302 -25.3514 156.9089 12.8868 4.4390 105.9728 -0.0592 0.2883 0.6048 -27.3769 20.5485 103.4391 -3.7501 53.6828 -3.7495 -0.4009 -0.5883 -1.5622 2.5763 -8.5740 0.9474 -61.1300 -9.0871 69.2475 -0.0697 41.1511 -9.9214 -18.1396 -4.4827 2.2467 5.0046 -31.1111 0.7413 
0.0000 93.1000 0.0000 -56.9835 -57.5289 -147.8150 -70.9875 0.3255 87.9989 81.0696 71.2930 14.6654 3.2526 22.3340 -1.9134 -137.3885 18.8271 -174.3819 -149.1858 54.6511 178.3026 -3.3060 -20.5838 -31.4238 -124.0352 12.0477 -91.7377 14.1033 6.0390 -67.0612 -0.3759 0.4831 0.1170 -2.9565 8.7059 34.6355 -50.9296 -22.4713 154.8566 12.5908 3.9048 105.8036 -0.3108 -0.4064 -1.0096 -27.9679 16.9726 93.4292 -4.8145 50.1606 -10.8096 -2.7493 -2.9517 0.1720 5.1150 -12.2264 2.1430 -58.6761 -9.2093 74.5486 1.8361 43.0590 1.0302 -14.4136 -7.6665 0.4674 2.4035 -31.8637 -13.9404 
0.0000 93.1000 0.0000 -63.0201 -52.0125 -153.8620 -70.9884 0.0042 88.0009 79.0966 71.2107 16.0092 4.9198 22.0322 -2.5291 -136.2837 18.0667 -172.1189 -145.2843 53.3050 177.9158 -2.9134 -20.7174 -33.0463 -126.9186 6.9133 -88.7599 12.3429 4.9221 -64.1661 -0.2847 0.2383 0.1892 -2.5719 8.3296 32.9261 -49.9370 -21.1025 154.9915 11.1665 3.1113 104.7469 -0.1928 -0.1077 -0.6520 -30.8428 16.3897 87.2300 -3.9799 48.1434 -10.8714 -3.4479 -3.4388 0.1554 4.6943 -11.2435 0.9116 -56.7666 -9.4798 76.1294 2.8632 42.7976 7.8237 -13.8457 -11.7694 0.3276 2.3994 -27.6305 -16.6949 
0.0000 93.1000 0.0000 -66.1335 -46.3880 -157.8409 -70.9824 -0.0967 88.0014 83.0484 71.0102 12.1906 5.4579 21.7319 -2.1490 -136.0019 17.4996 -168.8331 -144.1046 51.8887 177.8813 -2.3273 -20.9175 -34.5132 -128.7784 3.1308 -83.8492 10.1106 5.3681 -61.2335 -0.0218 0.0273 0.0348 -2.1997 7.6815 32.8635 -49.0243 -18.8423 154.9509 7.6257 2.2055 104.8614 -0.0086 -0.0637 -0.1942 -31.8996 17.6823 87.5910 -4.2117 50.3217 -4.9605 -2.4536 -3.8096 -0.5179 4.5528 -9.5937 -2.3889 -55.0893 -9.4629 77.5194 1.1207 42.2607 -1.0880 -15.1580 -18.1521 0.8876 0.4228 -21.9047 -0.3258 
0.0000 93.1000 0.0000 -68.1396 -43.4295 -160.8788 -70.9833 0.1867 88.0017 84.1124 70.7963 8.5836 6.6276 20.6033 -0.8074 -136.3222 16.2113 -168.1836 -142.9209 49.9589 176.9281 -1.8396 -21.0972 -35.1564 -130.9192 0.9082 -81.7541 8.2929 5.0441 -59.0812 0.2086 0.2202 -0.1821 -1.9629 7.2778 36.1129 -48.9266 -15.4326 152.1004 8.4681 1.6803 104.0859 -0.2145 -0.3122 -0.2920 -31.2288 18.7061 89.8762 -3.9065 51.2393 -4.0984 -2.1356 -5.0769 -1.1515 3.8782 -9.6842 -1.6623 -51.0979 -9.8682 81.7177 2.0150 46.0610 -3.1687 -18.6926 -19.2456 1.5800 1.8656 -23.8396 0.0841 
0.0000 93.1000 0.0000 -70.0527 -41.7279 -164.7950 -70.9809 0.0602 88.0024 90.1367 70.2957 2.6996 7.6158 20.4062 -0.9037 -135.1769 15.5044 -167.8788 -141.1674 48.9008 176.9421 -0.6602 -21.0611 -36.3068 -133.3407 -0.6198 -79.8584 8.3199 5.3125 -57.0599 0.5228 -0.0749 -0.0327 -1.3719 7.2722 38.4337 -48.9211 -13.5512 148.9174 7.8252 1.7992 104.5770 -0.0540 0.0275 0.3697 -32.4728 19.4241 93.1035 -4.2233 52.4860 -4.2356 -1.7543 -6.6112 -1.9005 3.0243 -7.0027 -1.2385 -49.7059 -10.7057 82.9149 2.2119 50.4264 -2.9870 -19.3685 -19.9673 1.8182 3.7077 -24.9973 -0.4850 
0.0000 93.1000 0.0000 -70.1042 -41.0976 -164.8836 -70.9887 -0.1933 88.0025 88.0251 70.0598 3.7144 7.8278 20.0924 -1.8241 -135.2749 15.0829 -167.9035 -140.4276 48.1148 175.0230 -2.1166 -21.6504 -38.2987 -132.9219 -1.8945 -78.7604 8.8585 5.7636 -55.1316 -0.1568 -0.1480 0.2994 -2.1851 7.3641 37.7043 -47.8680 -15.8479 148.0730 7.1934 2.1009 103.9408 0.1512 0.1887 0.0933 -32.8495 21.1485 95.0930 -4.9640 53.2282 -5.0917 -1.8206 -7.1148 -0.9421 3.1820 -7.9356 -1.0991 -49.7909 -10.5109 84.0408 2.0375 49.8711 -1.2663 -19.0958 -18.7401 1.0038 2.3324 -25.0195 -4.2787 
